<mxfile host="65bd71144e">
    <diagram id="5OOzwWzgB_-EoSL9n7wT" name="Page-1">
        <mxGraphModel dx="832" dy="510" grid="1" gridSize="8" guides="1" tooltips="1" connect="1" arrows="1" fold="1" page="0" pageScale="1" pageWidth="850" pageHeight="1100" background="#333333" math="0" shadow="1">
            <root>
                <mxCell id="0"/>
                <mxCell id="1" parent="0"/>
                <mxCell id="6" value="CATEGORY" style="shape=table;startSize=30;container=1;collapsible=1;childLayout=tableLayout;fixedRows=1;rowLines=0;fontStyle=1;align=center;resizeLast=1;shadow=0;fillColor=#333333;strokeColor=#FFFFFF;fontColor=#FFFFFF;labelBackgroundColor=none;labelBorderColor=none;fontFamily=Verdana;" parent="1" vertex="1">
                    <mxGeometry x="24" y="336" width="158" height="150" as="geometry"/>
                </mxCell>
                <mxCell id="7" value="" style="shape=partialRectangle;collapsible=0;dropTarget=0;pointerEvents=0;top=0;left=0;bottom=1;right=0;points=[[0,0.5],[1,0.5]];portConstraint=eastwest;shadow=0;fillColor=none;strokeColor=#FFFFFF;fontColor=#FFFFFF;labelBackgroundColor=none;labelBorderColor=none;fontFamily=Verdana;" parent="6" vertex="1">
                    <mxGeometry y="30" width="158" height="30" as="geometry"/>
                </mxCell>
                <mxCell id="8" value="PK" style="shape=partialRectangle;connectable=0;top=0;left=0;bottom=0;right=0;fontStyle=1;overflow=hidden;shadow=0;fillColor=none;strokeColor=#FFFFFF;fontColor=#FFFFFF;labelBackgroundColor=none;labelBorderColor=none;fontFamily=Verdana;" parent="7" vertex="1">
                    <mxGeometry width="30" height="30" as="geometry">
                        <mxRectangle width="30" height="30" as="alternateBounds"/>
                    </mxGeometry>
                </mxCell>
                <mxCell id="9" value="ID" style="shape=partialRectangle;connectable=0;top=0;left=0;bottom=0;right=0;align=left;spacingLeft=6;fontStyle=5;overflow=hidden;shadow=0;fillColor=none;strokeColor=#FFFFFF;fontColor=#FFFFFF;labelBackgroundColor=none;labelBorderColor=none;fontFamily=Verdana;" parent="7" vertex="1">
                    <mxGeometry x="30" width="128" height="30" as="geometry">
                        <mxRectangle width="128" height="30" as="alternateBounds"/>
                    </mxGeometry>
                </mxCell>
                <mxCell id="10" value="" style="shape=partialRectangle;collapsible=0;dropTarget=0;pointerEvents=0;top=0;left=0;bottom=0;right=0;points=[[0,0.5],[1,0.5]];portConstraint=eastwest;shadow=0;fillColor=none;strokeColor=#FFFFFF;fontColor=#FFFFFF;labelBackgroundColor=none;labelBorderColor=none;fontFamily=Verdana;" parent="6" vertex="1">
                    <mxGeometry y="60" width="158" height="30" as="geometry"/>
                </mxCell>
                <mxCell id="11" value="" style="shape=partialRectangle;connectable=0;top=0;left=0;bottom=0;right=0;editable=1;overflow=hidden;shadow=0;fillColor=none;strokeColor=#FFFFFF;fontColor=#FFFFFF;labelBackgroundColor=none;labelBorderColor=none;fontFamily=Verdana;" parent="10" vertex="1">
                    <mxGeometry width="30" height="30" as="geometry">
                        <mxRectangle width="30" height="30" as="alternateBounds"/>
                    </mxGeometry>
                </mxCell>
                <mxCell id="12" value="NAME" style="shape=partialRectangle;connectable=0;top=0;left=0;bottom=0;right=0;align=left;spacingLeft=6;overflow=hidden;shadow=0;fillColor=none;strokeColor=#FFFFFF;fontColor=#FFFFFF;labelBackgroundColor=none;labelBorderColor=none;fontFamily=Verdana;" parent="10" vertex="1">
                    <mxGeometry x="30" width="128" height="30" as="geometry">
                        <mxRectangle width="128" height="30" as="alternateBounds"/>
                    </mxGeometry>
                </mxCell>
                <mxCell id="13" value="" style="shape=partialRectangle;collapsible=0;dropTarget=0;pointerEvents=0;top=0;left=0;bottom=0;right=0;points=[[0,0.5],[1,0.5]];portConstraint=eastwest;shadow=0;fillColor=none;strokeColor=#FFFFFF;fontColor=#FFFFFF;labelBackgroundColor=none;labelBorderColor=none;fontFamily=Verdana;" parent="6" vertex="1">
                    <mxGeometry y="90" width="158" height="30" as="geometry"/>
                </mxCell>
                <mxCell id="14" value="" style="shape=partialRectangle;connectable=0;top=0;left=0;bottom=0;right=0;editable=1;overflow=hidden;shadow=0;fillColor=none;strokeColor=#FFFFFF;fontColor=#FFFFFF;labelBackgroundColor=none;labelBorderColor=none;fontFamily=Verdana;" parent="13" vertex="1">
                    <mxGeometry width="30" height="30" as="geometry">
                        <mxRectangle width="30" height="30" as="alternateBounds"/>
                    </mxGeometry>
                </mxCell>
                <mxCell id="15" value="DESCRIPTION" style="shape=partialRectangle;connectable=0;top=0;left=0;bottom=0;right=0;align=left;spacingLeft=6;overflow=hidden;shadow=0;fillColor=none;strokeColor=#FFFFFF;fontColor=#FFFFFF;labelBackgroundColor=none;labelBorderColor=none;fontFamily=Verdana;" parent="13" vertex="1">
                    <mxGeometry x="30" width="128" height="30" as="geometry">
                        <mxRectangle width="128" height="30" as="alternateBounds"/>
                    </mxGeometry>
                </mxCell>
                <mxCell id="16" value="" style="shape=partialRectangle;collapsible=0;dropTarget=0;pointerEvents=0;top=0;left=0;bottom=0;right=0;points=[[0,0.5],[1,0.5]];portConstraint=eastwest;shadow=0;fillColor=none;strokeColor=#FFFFFF;fontColor=#FFFFFF;labelBackgroundColor=none;labelBorderColor=none;fontFamily=Verdana;" parent="6" vertex="1">
                    <mxGeometry y="120" width="158" height="30" as="geometry"/>
                </mxCell>
                <mxCell id="17" value="" style="shape=partialRectangle;connectable=0;top=0;left=0;bottom=0;right=0;editable=1;overflow=hidden;shadow=0;fillColor=none;strokeColor=#FFFFFF;fontColor=#FFFFFF;labelBackgroundColor=none;labelBorderColor=none;fontFamily=Verdana;" parent="16" vertex="1">
                    <mxGeometry width="30" height="30" as="geometry">
                        <mxRectangle width="30" height="30" as="alternateBounds"/>
                    </mxGeometry>
                </mxCell>
                <mxCell id="18" value="" style="shape=partialRectangle;connectable=0;top=0;left=0;bottom=0;right=0;align=left;spacingLeft=6;overflow=hidden;shadow=0;fillColor=none;strokeColor=#FFFFFF;fontColor=#FFFFFF;labelBackgroundColor=none;labelBorderColor=none;fontFamily=Verdana;" parent="16" vertex="1">
                    <mxGeometry x="30" width="128" height="30" as="geometry">
                        <mxRectangle width="128" height="30" as="alternateBounds"/>
                    </mxGeometry>
                </mxCell>
                <mxCell id="73" style="edgeStyle=orthogonalEdgeStyle;html=1;entryX=1;entryY=0.5;entryDx=0;entryDy=0;fontColor=#FFFFFF;shadow=0;fillColor=none;strokeColor=#FFFFFF;labelBackgroundColor=none;labelBorderColor=none;fontFamily=Verdana;" parent="1" target="7" edge="1">
                    <mxGeometry relative="1" as="geometry">
                        <Array as="points">
                            <mxPoint x="210" y="248"/>
                            <mxPoint x="210" y="381"/>
                        </Array>
                        <mxPoint x="220" y="248" as="sourcePoint"/>
                    </mxGeometry>
                </mxCell>
                <mxCell id="19" value="ORTOPEDIC" style="shape=table;startSize=30;container=1;collapsible=1;childLayout=tableLayout;fixedRows=1;rowLines=0;fontStyle=1;align=center;resizeLast=1;shadow=0;fillColor=#333333;strokeColor=#FFFFFF;fontColor=#FFFFFF;labelBackgroundColor=none;labelBorderColor=none;fontFamily=Verdana;" parent="1" vertex="1">
                    <mxGeometry x="220" y="50" width="180" height="214" as="geometry"/>
                </mxCell>
                <mxCell id="20" value="" style="shape=partialRectangle;collapsible=0;dropTarget=0;pointerEvents=0;top=0;left=0;bottom=1;right=0;points=[[0,0.5],[1,0.5]];portConstraint=eastwest;shadow=0;fillColor=none;strokeColor=#FFFFFF;fontColor=#FFFFFF;labelBackgroundColor=none;labelBorderColor=none;fontFamily=Verdana;" parent="19" vertex="1">
                    <mxGeometry y="30" width="180" height="30" as="geometry"/>
                </mxCell>
                <mxCell id="21" value="PK" style="shape=partialRectangle;connectable=0;top=0;left=0;bottom=0;right=0;fontStyle=1;overflow=hidden;shadow=0;fillColor=none;strokeColor=#FFFFFF;fontColor=#FFFFFF;labelBackgroundColor=none;labelBorderColor=none;fontFamily=Verdana;" parent="20" vertex="1">
                    <mxGeometry width="30" height="30" as="geometry">
                        <mxRectangle width="30" height="30" as="alternateBounds"/>
                    </mxGeometry>
                </mxCell>
                <mxCell id="22" value="ID" style="shape=partialRectangle;connectable=0;top=0;left=0;bottom=0;right=0;align=left;spacingLeft=6;fontStyle=5;overflow=hidden;shadow=0;fillColor=none;strokeColor=#FFFFFF;fontColor=#FFFFFF;labelBackgroundColor=none;labelBorderColor=none;fontFamily=Verdana;" parent="20" vertex="1">
                    <mxGeometry x="30" width="150" height="30" as="geometry">
                        <mxRectangle width="150" height="30" as="alternateBounds"/>
                    </mxGeometry>
                </mxCell>
                <mxCell id="23" value="" style="shape=partialRectangle;collapsible=0;dropTarget=0;pointerEvents=0;top=0;left=0;bottom=0;right=0;points=[[0,0.5],[1,0.5]];portConstraint=eastwest;shadow=0;fillColor=none;strokeColor=#FFFFFF;fontColor=#FFFFFF;labelBackgroundColor=none;labelBorderColor=none;fontFamily=Verdana;" parent="19" vertex="1">
                    <mxGeometry y="60" width="180" height="30" as="geometry"/>
                </mxCell>
                <mxCell id="24" value="" style="shape=partialRectangle;connectable=0;top=0;left=0;bottom=0;right=0;editable=1;overflow=hidden;shadow=0;fillColor=none;strokeColor=#FFFFFF;fontColor=#FFFFFF;labelBackgroundColor=none;labelBorderColor=none;fontFamily=Verdana;" parent="23" vertex="1">
                    <mxGeometry width="30" height="30" as="geometry">
                        <mxRectangle width="30" height="30" as="alternateBounds"/>
                    </mxGeometry>
                </mxCell>
                <mxCell id="25" value="NAME" style="shape=partialRectangle;connectable=0;top=0;left=0;bottom=0;right=0;align=left;spacingLeft=6;overflow=hidden;shadow=0;fillColor=none;strokeColor=#FFFFFF;fontColor=#FFFFFF;labelBackgroundColor=none;labelBorderColor=none;fontFamily=Verdana;" parent="23" vertex="1">
                    <mxGeometry x="30" width="150" height="30" as="geometry">
                        <mxRectangle width="150" height="30" as="alternateBounds"/>
                    </mxGeometry>
                </mxCell>
                <mxCell id="26" value="" style="shape=partialRectangle;collapsible=0;dropTarget=0;pointerEvents=0;top=0;left=0;bottom=0;right=0;points=[[0,0.5],[1,0.5]];portConstraint=eastwest;shadow=0;fillColor=none;strokeColor=#FFFFFF;fontColor=#FFFFFF;labelBackgroundColor=none;labelBorderColor=none;fontFamily=Verdana;" parent="19" vertex="1">
                    <mxGeometry y="90" width="180" height="30" as="geometry"/>
                </mxCell>
                <mxCell id="27" value="" style="shape=partialRectangle;connectable=0;top=0;left=0;bottom=0;right=0;editable=1;overflow=hidden;shadow=0;fillColor=none;strokeColor=#FFFFFF;fontColor=#FFFFFF;labelBackgroundColor=none;labelBorderColor=none;fontFamily=Verdana;" parent="26" vertex="1">
                    <mxGeometry width="30" height="30" as="geometry">
                        <mxRectangle width="30" height="30" as="alternateBounds"/>
                    </mxGeometry>
                </mxCell>
                <mxCell id="28" value="BRAND" style="shape=partialRectangle;connectable=0;top=0;left=0;bottom=0;right=0;align=left;spacingLeft=6;overflow=hidden;shadow=0;fillColor=none;strokeColor=#FFFFFF;fontColor=#FFFFFF;labelBackgroundColor=none;labelBorderColor=none;fontFamily=Verdana;" parent="26" vertex="1">
                    <mxGeometry x="30" width="150" height="30" as="geometry">
                        <mxRectangle width="150" height="30" as="alternateBounds"/>
                    </mxGeometry>
                </mxCell>
                <mxCell id="29" value="" style="shape=partialRectangle;collapsible=0;dropTarget=0;pointerEvents=0;top=0;left=0;bottom=0;right=0;points=[[0,0.5],[1,0.5]];portConstraint=eastwest;shadow=0;fillColor=none;strokeColor=#FFFFFF;fontColor=#FFFFFF;labelBackgroundColor=none;labelBorderColor=none;fontFamily=Verdana;" parent="19" vertex="1">
                    <mxGeometry y="120" width="180" height="30" as="geometry"/>
                </mxCell>
                <mxCell id="30" value="" style="shape=partialRectangle;connectable=0;top=0;left=0;bottom=0;right=0;editable=1;overflow=hidden;shadow=0;fillColor=none;strokeColor=#FFFFFF;fontColor=#FFFFFF;labelBackgroundColor=none;labelBorderColor=none;fontFamily=Verdana;" parent="29" vertex="1">
                    <mxGeometry width="30" height="30" as="geometry">
                        <mxRectangle width="30" height="30" as="alternateBounds"/>
                    </mxGeometry>
                </mxCell>
                <mxCell id="31" value="YEAR" style="shape=partialRectangle;connectable=0;top=0;left=0;bottom=0;right=0;align=left;spacingLeft=6;overflow=hidden;shadow=0;fillColor=none;strokeColor=#FFFFFF;fontColor=#FFFFFF;labelBackgroundColor=none;labelBorderColor=none;fontFamily=Verdana;" parent="29" vertex="1">
                    <mxGeometry x="30" width="150" height="30" as="geometry">
                        <mxRectangle width="150" height="30" as="alternateBounds"/>
                    </mxGeometry>
                </mxCell>
                <mxCell id="82" style="edgeStyle=orthogonalEdgeStyle;html=1;exitX=0;exitY=0.75;exitDx=0;exitDy=0;entryX=1;entryY=0.5;entryDx=0;entryDy=0;fontColor=#FFFFFF;shadow=0;fillColor=none;strokeColor=#FFFFFF;labelBackgroundColor=none;labelBorderColor=none;fontFamily=Verdana;" parent="1" source="32" target="20" edge="1">
                    <mxGeometry relative="1" as="geometry"/>
                </mxCell>
                <mxCell id="32" value="RESERVATION" style="shape=table;startSize=30;container=1;collapsible=1;childLayout=tableLayout;fixedRows=1;rowLines=0;fontStyle=1;align=center;resizeLast=1;shadow=0;fillColor=#333333;strokeColor=#FFFFFF;fontColor=#FFFFFF;labelBackgroundColor=none;labelBorderColor=none;fontFamily=Verdana;" parent="1" vertex="1">
                    <mxGeometry x="512" y="64.5" width="180" height="185" as="geometry"/>
                </mxCell>
                <mxCell id="33" value="" style="shape=partialRectangle;collapsible=0;dropTarget=0;pointerEvents=0;top=0;left=0;bottom=1;right=0;points=[[0,0.5],[1,0.5]];portConstraint=eastwest;shadow=0;fillColor=none;strokeColor=#FFFFFF;fontColor=#FFFFFF;labelBackgroundColor=none;labelBorderColor=none;fontFamily=Verdana;" parent="32" vertex="1">
                    <mxGeometry y="30" width="180" height="30" as="geometry"/>
                </mxCell>
                <mxCell id="34" value="PK" style="shape=partialRectangle;connectable=0;top=0;left=0;bottom=0;right=0;fontStyle=1;overflow=hidden;shadow=0;fillColor=none;strokeColor=#FFFFFF;fontColor=#FFFFFF;labelBackgroundColor=none;labelBorderColor=none;fontFamily=Verdana;" parent="33" vertex="1">
                    <mxGeometry width="30" height="30" as="geometry">
                        <mxRectangle width="30" height="30" as="alternateBounds"/>
                    </mxGeometry>
                </mxCell>
                <mxCell id="35" value="ID" style="shape=partialRectangle;connectable=0;top=0;left=0;bottom=0;right=0;align=left;spacingLeft=6;fontStyle=5;overflow=hidden;shadow=0;fillColor=none;strokeColor=#FFFFFF;fontColor=#FFFFFF;labelBackgroundColor=none;labelBorderColor=none;fontFamily=Verdana;" parent="33" vertex="1">
                    <mxGeometry x="30" width="150" height="30" as="geometry">
                        <mxRectangle width="150" height="30" as="alternateBounds"/>
                    </mxGeometry>
                </mxCell>
                <mxCell id="36" value="" style="shape=partialRectangle;collapsible=0;dropTarget=0;pointerEvents=0;top=0;left=0;bottom=0;right=0;points=[[0,0.5],[1,0.5]];portConstraint=eastwest;shadow=0;fillColor=none;strokeColor=#FFFFFF;fontColor=#FFFFFF;labelBackgroundColor=none;labelBorderColor=none;fontFamily=Verdana;" parent="32" vertex="1">
                    <mxGeometry y="60" width="180" height="30" as="geometry"/>
                </mxCell>
                <mxCell id="37" value="" style="shape=partialRectangle;connectable=0;top=0;left=0;bottom=0;right=0;editable=1;overflow=hidden;shadow=0;fillColor=none;strokeColor=#FFFFFF;fontColor=#FFFFFF;labelBackgroundColor=none;labelBorderColor=none;fontFamily=Verdana;" parent="36" vertex="1">
                    <mxGeometry width="30" height="30" as="geometry">
                        <mxRectangle width="30" height="30" as="alternateBounds"/>
                    </mxGeometry>
                </mxCell>
                <mxCell id="38" value="STARTDATE" style="shape=partialRectangle;connectable=0;top=0;left=0;bottom=0;right=0;align=left;spacingLeft=6;overflow=hidden;shadow=0;fillColor=none;strokeColor=#FFFFFF;fontColor=#FFFFFF;labelBackgroundColor=none;labelBorderColor=none;fontFamily=Verdana;" parent="36" vertex="1">
                    <mxGeometry x="30" width="150" height="30" as="geometry">
                        <mxRectangle width="150" height="30" as="alternateBounds"/>
                    </mxGeometry>
                </mxCell>
                <mxCell id="39" value="" style="shape=partialRectangle;collapsible=0;dropTarget=0;pointerEvents=0;top=0;left=0;bottom=0;right=0;points=[[0,0.5],[1,0.5]];portConstraint=eastwest;shadow=0;fillColor=none;strokeColor=#FFFFFF;fontColor=#FFFFFF;labelBackgroundColor=none;labelBorderColor=none;fontFamily=Verdana;" parent="32" vertex="1">
                    <mxGeometry y="90" width="180" height="30" as="geometry"/>
                </mxCell>
                <mxCell id="40" value="" style="shape=partialRectangle;connectable=0;top=0;left=0;bottom=0;right=0;editable=1;overflow=hidden;shadow=0;fillColor=none;strokeColor=#FFFFFF;fontColor=#FFFFFF;labelBackgroundColor=none;labelBorderColor=none;fontFamily=Verdana;" parent="39" vertex="1">
                    <mxGeometry width="30" height="30" as="geometry">
                        <mxRectangle width="30" height="30" as="alternateBounds"/>
                    </mxGeometry>
                </mxCell>
                <mxCell id="41" value="DEVOLUTIONDATE" style="shape=partialRectangle;connectable=0;top=0;left=0;bottom=0;right=0;align=left;spacingLeft=6;overflow=hidden;shadow=0;fillColor=none;strokeColor=#FFFFFF;fontColor=#FFFFFF;labelBackgroundColor=none;labelBorderColor=none;fontFamily=Verdana;" parent="39" vertex="1">
                    <mxGeometry x="30" width="150" height="30" as="geometry">
                        <mxRectangle width="150" height="30" as="alternateBounds"/>
                    </mxGeometry>
                </mxCell>
                <mxCell id="42" value="" style="shape=partialRectangle;collapsible=0;dropTarget=0;pointerEvents=0;top=0;left=0;bottom=0;right=0;points=[[0,0.5],[1,0.5]];portConstraint=eastwest;shadow=0;fillColor=none;strokeColor=#FFFFFF;fontColor=#FFFFFF;labelBackgroundColor=none;labelBorderColor=none;fontFamily=Verdana;" parent="32" vertex="1">
                    <mxGeometry y="120" width="180" height="30" as="geometry"/>
                </mxCell>
                <mxCell id="43" value="" style="shape=partialRectangle;connectable=0;top=0;left=0;bottom=0;right=0;editable=1;overflow=hidden;shadow=0;fillColor=none;strokeColor=#FFFFFF;fontColor=#FFFFFF;labelBackgroundColor=none;labelBorderColor=none;fontFamily=Verdana;" parent="42" vertex="1">
                    <mxGeometry width="30" height="30" as="geometry">
                        <mxRectangle width="30" height="30" as="alternateBounds"/>
                    </mxGeometry>
                </mxCell>
                <mxCell id="44" value="CLIENT_ID" style="shape=partialRectangle;connectable=0;top=0;left=0;bottom=0;right=0;align=left;spacingLeft=6;overflow=hidden;shadow=0;fillColor=none;strokeColor=#FFFFFF;fontColor=#FFFFFF;labelBackgroundColor=none;labelBorderColor=none;fontFamily=Verdana;" parent="42" vertex="1">
                    <mxGeometry x="30" width="150" height="30" as="geometry">
                        <mxRectangle width="150" height="30" as="alternateBounds"/>
                    </mxGeometry>
                </mxCell>
                <mxCell id="45" value="MESSAGE" style="shape=table;startSize=30;container=1;collapsible=1;childLayout=tableLayout;fixedRows=1;rowLines=0;fontStyle=1;align=center;resizeLast=1;shadow=0;fillColor=#333333;strokeColor=#FFFFFF;fontColor=#FFFFFF;labelBackgroundColor=none;labelBorderColor=none;fontFamily=Verdana;" parent="1" vertex="1">
                    <mxGeometry x="352" y="331" width="180" height="160" as="geometry"/>
                </mxCell>
                <mxCell id="46" value="" style="shape=partialRectangle;collapsible=0;dropTarget=0;pointerEvents=0;top=0;left=0;bottom=1;right=0;points=[[0,0.5],[1,0.5]];portConstraint=eastwest;shadow=0;fillColor=none;strokeColor=#FFFFFF;fontColor=#FFFFFF;labelBackgroundColor=none;labelBorderColor=none;fontFamily=Verdana;" parent="45" vertex="1">
                    <mxGeometry y="30" width="180" height="30" as="geometry"/>
                </mxCell>
                <mxCell id="47" value="PK" style="shape=partialRectangle;connectable=0;top=0;left=0;bottom=0;right=0;fontStyle=1;overflow=hidden;shadow=0;fillColor=none;strokeColor=#FFFFFF;fontColor=#FFFFFF;labelBackgroundColor=none;labelBorderColor=none;fontFamily=Verdana;" parent="46" vertex="1">
                    <mxGeometry width="30" height="30" as="geometry">
                        <mxRectangle width="30" height="30" as="alternateBounds"/>
                    </mxGeometry>
                </mxCell>
                <mxCell id="48" value="ID" style="shape=partialRectangle;connectable=0;top=0;left=0;bottom=0;right=0;align=left;spacingLeft=6;fontStyle=5;overflow=hidden;shadow=0;fillColor=none;strokeColor=#FFFFFF;fontColor=#FFFFFF;labelBackgroundColor=none;labelBorderColor=none;fontFamily=Verdana;" parent="46" vertex="1">
                    <mxGeometry x="30" width="150" height="30" as="geometry">
                        <mxRectangle width="150" height="30" as="alternateBounds"/>
                    </mxGeometry>
                </mxCell>
                <mxCell id="49" value="" style="shape=partialRectangle;collapsible=0;dropTarget=0;pointerEvents=0;top=0;left=0;bottom=0;right=0;points=[[0,0.5],[1,0.5]];portConstraint=eastwest;shadow=0;fillColor=none;strokeColor=#FFFFFF;fontColor=#FFFFFF;labelBackgroundColor=none;labelBorderColor=none;fontFamily=Verdana;" parent="45" vertex="1">
                    <mxGeometry y="60" width="180" height="30" as="geometry"/>
                </mxCell>
                <mxCell id="50" value="" style="shape=partialRectangle;connectable=0;top=0;left=0;bottom=0;right=0;editable=1;overflow=hidden;shadow=0;fillColor=none;strokeColor=#FFFFFF;fontColor=#FFFFFF;labelBackgroundColor=none;labelBorderColor=none;fontFamily=Verdana;" parent="49" vertex="1">
                    <mxGeometry width="30" height="30" as="geometry">
                        <mxRectangle width="30" height="30" as="alternateBounds"/>
                    </mxGeometry>
                </mxCell>
                <mxCell id="51" value="MESSAGETEXT" style="shape=partialRectangle;connectable=0;top=0;left=0;bottom=0;right=0;align=left;spacingLeft=6;overflow=hidden;shadow=0;fillColor=none;strokeColor=#FFFFFF;fontColor=#FFFFFF;labelBackgroundColor=none;labelBorderColor=none;fontFamily=Verdana;" parent="49" vertex="1">
                    <mxGeometry x="30" width="150" height="30" as="geometry">
                        <mxRectangle width="150" height="30" as="alternateBounds"/>
                    </mxGeometry>
                </mxCell>
                <mxCell id="52" value="" style="shape=partialRectangle;collapsible=0;dropTarget=0;pointerEvents=0;top=0;left=0;bottom=0;right=0;points=[[0,0.5],[1,0.5]];portConstraint=eastwest;shadow=0;fillColor=none;strokeColor=#FFFFFF;fontColor=#FFFFFF;labelBackgroundColor=none;labelBorderColor=none;fontFamily=Verdana;" parent="45" vertex="1">
                    <mxGeometry y="90" width="180" height="30" as="geometry"/>
                </mxCell>
                <mxCell id="53" value="" style="shape=partialRectangle;connectable=0;top=0;left=0;bottom=0;right=0;editable=1;overflow=hidden;shadow=0;fillColor=none;strokeColor=#FFFFFF;fontColor=#FFFFFF;labelBackgroundColor=none;labelBorderColor=none;fontFamily=Verdana;" parent="52" vertex="1">
                    <mxGeometry width="30" height="30" as="geometry">
                        <mxRectangle width="30" height="30" as="alternateBounds"/>
                    </mxGeometry>
                </mxCell>
                <mxCell id="54" value="CLIENT_ID" style="shape=partialRectangle;connectable=0;top=0;left=0;bottom=0;right=0;align=left;spacingLeft=6;overflow=hidden;shadow=0;fillColor=none;strokeColor=#FFFFFF;fontColor=#FFFFFF;labelBackgroundColor=none;labelBorderColor=none;fontFamily=Verdana;" parent="52" vertex="1">
                    <mxGeometry x="30" width="150" height="30" as="geometry">
                        <mxRectangle width="150" height="30" as="alternateBounds"/>
                    </mxGeometry>
                </mxCell>
                <mxCell id="55" value="" style="shape=partialRectangle;collapsible=0;dropTarget=0;pointerEvents=0;top=0;left=0;bottom=0;right=0;points=[[0,0.5],[1,0.5]];portConstraint=eastwest;shadow=0;fillColor=none;strokeColor=#FFFFFF;fontColor=#FFFFFF;labelBackgroundColor=none;labelBorderColor=none;fontFamily=Verdana;" parent="45" vertex="1">
                    <mxGeometry y="120" width="180" height="30" as="geometry"/>
                </mxCell>
                <mxCell id="56" value="" style="shape=partialRectangle;connectable=0;top=0;left=0;bottom=0;right=0;editable=1;overflow=hidden;shadow=0;fillColor=none;strokeColor=#FFFFFF;fontColor=#FFFFFF;labelBackgroundColor=none;labelBorderColor=none;fontFamily=Verdana;" parent="55" vertex="1">
                    <mxGeometry width="30" height="30" as="geometry">
                        <mxRectangle width="30" height="30" as="alternateBounds"/>
                    </mxGeometry>
                </mxCell>
                <mxCell id="57" value="ORTOPEDIC_ID" style="shape=partialRectangle;connectable=0;top=0;left=0;bottom=0;right=0;align=left;spacingLeft=6;overflow=hidden;shadow=0;fillColor=none;strokeColor=#FFFFFF;fontColor=#FFFFFF;labelBackgroundColor=none;labelBorderColor=none;fontFamily=Verdana;" parent="55" vertex="1">
                    <mxGeometry x="30" width="150" height="30" as="geometry">
                        <mxRectangle width="150" height="30" as="alternateBounds"/>
                    </mxGeometry>
                </mxCell>
                <mxCell id="58" value="CLIENT" style="shape=table;startSize=30;container=1;collapsible=1;childLayout=tableLayout;fixedRows=1;rowLines=0;fontStyle=1;align=center;resizeLast=1;shadow=0;fillColor=#333333;strokeColor=#FFFFFF;fontColor=#FFFFFF;labelBackgroundColor=none;labelBorderColor=none;fontFamily=Verdana;" parent="1" vertex="1">
                    <mxGeometry x="650" y="311" width="180" height="185" as="geometry"/>
                </mxCell>
                <mxCell id="59" value="" style="shape=partialRectangle;collapsible=0;dropTarget=0;pointerEvents=0;top=0;left=0;bottom=1;right=0;points=[[0,0.5],[1,0.5]];portConstraint=eastwest;shadow=0;fillColor=none;strokeColor=#FFFFFF;fontColor=#FFFFFF;labelBackgroundColor=none;labelBorderColor=none;fontFamily=Verdana;" parent="58" vertex="1">
                    <mxGeometry y="30" width="180" height="30" as="geometry"/>
                </mxCell>
                <mxCell id="60" value="PK" style="shape=partialRectangle;connectable=0;top=0;left=0;bottom=0;right=0;fontStyle=1;overflow=hidden;shadow=0;fillColor=none;strokeColor=#FFFFFF;fontColor=#FFFFFF;labelBackgroundColor=none;labelBorderColor=none;fontFamily=Verdana;" parent="59" vertex="1">
                    <mxGeometry width="30" height="30" as="geometry">
                        <mxRectangle width="30" height="30" as="alternateBounds"/>
                    </mxGeometry>
                </mxCell>
                <mxCell id="61" value="ID" style="shape=partialRectangle;connectable=0;top=0;left=0;bottom=0;right=0;align=left;spacingLeft=6;fontStyle=5;overflow=hidden;shadow=0;fillColor=none;strokeColor=#FFFFFF;fontColor=#FFFFFF;labelBackgroundColor=none;labelBorderColor=none;fontFamily=Verdana;" parent="59" vertex="1">
                    <mxGeometry x="30" width="150" height="30" as="geometry">
                        <mxRectangle width="150" height="30" as="alternateBounds"/>
                    </mxGeometry>
                </mxCell>
                <mxCell id="62" value="" style="shape=partialRectangle;collapsible=0;dropTarget=0;pointerEvents=0;top=0;left=0;bottom=0;right=0;points=[[0,0.5],[1,0.5]];portConstraint=eastwest;shadow=0;fillColor=none;strokeColor=#FFFFFF;fontColor=#FFFFFF;labelBackgroundColor=none;labelBorderColor=none;fontFamily=Verdana;" parent="58" vertex="1">
                    <mxGeometry y="60" width="180" height="30" as="geometry"/>
                </mxCell>
                <mxCell id="63" value="" style="shape=partialRectangle;connectable=0;top=0;left=0;bottom=0;right=0;editable=1;overflow=hidden;shadow=0;fillColor=none;strokeColor=#FFFFFF;fontColor=#FFFFFF;labelBackgroundColor=none;labelBorderColor=none;fontFamily=Verdana;" parent="62" vertex="1">
                    <mxGeometry width="30" height="30" as="geometry">
                        <mxRectangle width="30" height="30" as="alternateBounds"/>
                    </mxGeometry>
                </mxCell>
                <mxCell id="64" value="NAME" style="shape=partialRectangle;connectable=0;top=0;left=0;bottom=0;right=0;align=left;spacingLeft=6;overflow=hidden;shadow=0;fillColor=none;strokeColor=#FFFFFF;fontColor=#FFFFFF;labelBackgroundColor=none;labelBorderColor=none;fontFamily=Verdana;" parent="62" vertex="1">
                    <mxGeometry x="30" width="150" height="30" as="geometry">
                        <mxRectangle width="150" height="30" as="alternateBounds"/>
                    </mxGeometry>
                </mxCell>
                <mxCell id="65" value="" style="shape=partialRectangle;collapsible=0;dropTarget=0;pointerEvents=0;top=0;left=0;bottom=0;right=0;points=[[0,0.5],[1,0.5]];portConstraint=eastwest;shadow=0;fillColor=none;strokeColor=#FFFFFF;fontColor=#FFFFFF;labelBackgroundColor=none;labelBorderColor=none;fontFamily=Verdana;" parent="58" vertex="1">
                    <mxGeometry y="90" width="180" height="30" as="geometry"/>
                </mxCell>
                <mxCell id="66" value="" style="shape=partialRectangle;connectable=0;top=0;left=0;bottom=0;right=0;editable=1;overflow=hidden;shadow=0;fillColor=none;strokeColor=#FFFFFF;fontColor=#FFFFFF;labelBackgroundColor=none;labelBorderColor=none;fontFamily=Verdana;" parent="65" vertex="1">
                    <mxGeometry width="30" height="30" as="geometry">
                        <mxRectangle width="30" height="30" as="alternateBounds"/>
                    </mxGeometry>
                </mxCell>
                <mxCell id="67" value="EMAIL" style="shape=partialRectangle;connectable=0;top=0;left=0;bottom=0;right=0;align=left;spacingLeft=6;overflow=hidden;shadow=0;fillColor=none;strokeColor=#FFFFFF;fontColor=#FFFFFF;labelBackgroundColor=none;labelBorderColor=none;fontFamily=Verdana;" parent="65" vertex="1">
                    <mxGeometry x="30" width="150" height="30" as="geometry">
                        <mxRectangle width="150" height="30" as="alternateBounds"/>
                    </mxGeometry>
                </mxCell>
                <mxCell id="68" value="" style="shape=partialRectangle;collapsible=0;dropTarget=0;pointerEvents=0;top=0;left=0;bottom=0;right=0;points=[[0,0.5],[1,0.5]];portConstraint=eastwest;shadow=0;fillColor=none;strokeColor=#FFFFFF;fontColor=#FFFFFF;labelBackgroundColor=none;labelBorderColor=none;fontFamily=Verdana;" parent="58" vertex="1">
                    <mxGeometry y="120" width="180" height="30" as="geometry"/>
                </mxCell>
                <mxCell id="69" value="" style="shape=partialRectangle;connectable=0;top=0;left=0;bottom=0;right=0;editable=1;overflow=hidden;shadow=0;fillColor=none;strokeColor=#FFFFFF;fontColor=#FFFFFF;labelBackgroundColor=none;labelBorderColor=none;fontFamily=Verdana;" parent="68" vertex="1">
                    <mxGeometry width="30" height="30" as="geometry">
                        <mxRectangle width="30" height="30" as="alternateBounds"/>
                    </mxGeometry>
                </mxCell>
                <mxCell id="70" value="PASSWORD" style="shape=partialRectangle;connectable=0;top=0;left=0;bottom=0;right=0;align=left;spacingLeft=6;overflow=hidden;shadow=0;fillColor=none;strokeColor=#FFFFFF;fontColor=#FFFFFF;labelBackgroundColor=none;labelBorderColor=none;fontFamily=Verdana;" parent="68" vertex="1">
                    <mxGeometry x="30" width="150" height="30" as="geometry">
                        <mxRectangle width="150" height="30" as="alternateBounds"/>
                    </mxGeometry>
                </mxCell>
                <mxCell id="71" value="DESCRIPTION" style="shape=partialRectangle;connectable=0;top=0;left=0;bottom=0;right=0;align=left;spacingLeft=6;overflow=hidden;shadow=0;fillColor=none;strokeColor=#FFFFFF;fontColor=#FFFFFF;labelBackgroundColor=none;labelBorderColor=none;fontFamily=Verdana;" parent="1" vertex="1">
                    <mxGeometry x="250" y="199" width="150" height="30" as="geometry">
                        <mxRectangle width="150" height="30" as="alternateBounds"/>
                    </mxGeometry>
                </mxCell>
                <mxCell id="72" value="CATEGORY_ID" style="shape=partialRectangle;connectable=0;top=0;left=0;bottom=0;right=0;align=left;spacingLeft=6;overflow=hidden;shadow=0;fillColor=none;strokeColor=#FFFFFF;fontColor=#FFFFFF;labelBackgroundColor=none;labelBorderColor=none;fontFamily=Verdana;" parent="1" vertex="1">
                    <mxGeometry x="250" y="229" width="150" height="30" as="geometry">
                        <mxRectangle width="150" height="30" as="alternateBounds"/>
                    </mxGeometry>
                </mxCell>
                <mxCell id="75" value="AGE" style="shape=partialRectangle;connectable=0;top=0;left=0;bottom=0;right=0;align=left;spacingLeft=6;overflow=hidden;shadow=0;fillColor=none;strokeColor=#FFFFFF;fontColor=#FFFFFF;labelBackgroundColor=none;labelBorderColor=none;fontFamily=Verdana;" parent="1" vertex="1">
                    <mxGeometry x="680" y="461" width="150" height="30" as="geometry">
                        <mxRectangle width="150" height="30" as="alternateBounds"/>
                    </mxGeometry>
                </mxCell>
                <mxCell id="78" style="edgeStyle=orthogonalEdgeStyle;html=1;exitX=0;exitY=0.5;exitDx=0;exitDy=0;fontColor=#FFFFFF;shadow=0;fillColor=none;strokeColor=#FFFFFF;labelBackgroundColor=none;labelBorderColor=none;fontFamily=Verdana;" parent="1" source="55" edge="1">
                    <mxGeometry relative="1" as="geometry">
                        <mxPoint x="300" y="261" as="targetPoint"/>
                    </mxGeometry>
                </mxCell>
                <mxCell id="79" value="ORTOPEDIC_ID" style="shape=partialRectangle;connectable=0;top=0;left=0;bottom=0;right=0;align=left;spacingLeft=6;overflow=hidden;shadow=0;fillColor=none;strokeColor=#FFFFFF;fontColor=#FFFFFF;labelBackgroundColor=none;labelBorderColor=none;fontFamily=Verdana;" parent="1" vertex="1">
                    <mxGeometry x="542" y="213.5" width="150" height="30" as="geometry">
                        <mxRectangle width="150" height="30" as="alternateBounds"/>
                    </mxGeometry>
                </mxCell>
                <mxCell id="83" style="edgeStyle=orthogonalEdgeStyle;html=1;exitX=1;exitY=0.5;exitDx=0;exitDy=0;entryX=0;entryY=0.5;entryDx=0;entryDy=0;fontColor=#FFFFFF;shadow=0;fillColor=none;strokeColor=#FFFFFF;labelBackgroundColor=none;labelBorderColor=none;fontFamily=Verdana;" parent="1" source="52" target="59" edge="1">
                    <mxGeometry relative="1" as="geometry"/>
                </mxCell>
                <mxCell id="84" style="edgeStyle=orthogonalEdgeStyle;html=1;exitX=1;exitY=0.5;exitDx=0;exitDy=0;entryX=1;entryY=0.5;entryDx=0;entryDy=0;fontColor=#FFFFFF;shadow=0;fillColor=none;strokeColor=#FFFFFF;labelBackgroundColor=none;labelBorderColor=none;fontFamily=Verdana;" parent="1" source="42" target="59" edge="1">
                    <mxGeometry relative="1" as="geometry"/>
                </mxCell>
                <mxCell id="86" value="FK" style="shape=partialRectangle;connectable=0;top=0;left=0;bottom=0;right=0;fontStyle=1;overflow=hidden;shadow=0;fillColor=none;strokeColor=#FFFFFF;fontColor=#FFFFFF;labelBackgroundColor=none;labelBorderColor=none;fontFamily=Verdana;" parent="1" vertex="1">
                    <mxGeometry x="221" y="229" width="30" height="30" as="geometry">
                        <mxRectangle width="30" height="30" as="alternateBounds"/>
                    </mxGeometry>
                </mxCell>
                <mxCell id="87" value="FK" style="shape=partialRectangle;connectable=0;top=0;left=0;bottom=0;right=0;fontStyle=1;overflow=hidden;shadow=0;fillColor=none;strokeColor=#FFFFFF;fontColor=#FFFFFF;labelBackgroundColor=none;labelBorderColor=none;fontFamily=Verdana;" parent="1" vertex="1">
                    <mxGeometry x="512" y="184.5" width="30" height="30" as="geometry">
                        <mxRectangle width="30" height="30" as="alternateBounds"/>
                    </mxGeometry>
                </mxCell>
                <mxCell id="88" value="FK" style="shape=partialRectangle;connectable=0;top=0;left=0;bottom=0;right=0;fontStyle=1;overflow=hidden;shadow=0;fillColor=none;strokeColor=#FFFFFF;fontColor=#FFFFFF;labelBackgroundColor=none;labelBorderColor=none;fontFamily=Verdana;" parent="1" vertex="1">
                    <mxGeometry x="512" y="213.5" width="30" height="30" as="geometry">
                        <mxRectangle width="30" height="30" as="alternateBounds"/>
                    </mxGeometry>
                </mxCell>
                <mxCell id="89" value="FK" style="shape=partialRectangle;connectable=0;top=0;left=0;bottom=0;right=0;fontStyle=1;overflow=hidden;shadow=0;fillColor=none;strokeColor=#FFFFFF;fontColor=#FFFFFF;labelBackgroundColor=none;labelBorderColor=none;fontFamily=Verdana;" parent="1" vertex="1">
                    <mxGeometry x="352" y="421" width="30" height="30" as="geometry">
                        <mxRectangle width="30" height="30" as="alternateBounds"/>
                    </mxGeometry>
                </mxCell>
                <mxCell id="90" value="FK" style="shape=partialRectangle;connectable=0;top=0;left=0;bottom=0;right=0;fontStyle=1;overflow=hidden;shadow=0;fillColor=none;strokeColor=#FFFFFF;fontColor=#FFFFFF;labelBackgroundColor=none;labelBorderColor=none;fontFamily=Verdana;" parent="1" vertex="1">
                    <mxGeometry x="352" y="451" width="30" height="30" as="geometry">
                        <mxRectangle width="30" height="30" as="alternateBounds"/>
                    </mxGeometry>
                </mxCell>
            </root>
        </mxGraphModel>
    </diagram>
</mxfile>